<?xml version="1.0" standalone="no"?>
<!DOCTYPE svg PUBLIC "-//W3C//DTD SVG 20010904//EN"
 "http://www.w3.org/TR/2001/REC-SVG-20010904/DTD/svg10.dtd">
<svg version="1.0" xmlns="http://www.w3.org/2000/svg"
 width="151.000000pt" height="151.000000pt" viewBox="0 0 151.000000 151.000000"
 preserveAspectRatio="xMidYMid meet">
<metadata>
Created by potrace 1.11, written by Peter Selinger 2001-2013
</metadata>
<g transform="translate(0.000000,151.000000) scale(0.100000,-0.100000)"
fill="#000000" stroke="none">
<path d="M619 1506 c-2 -2 -20 -7 -39 -10 -81 -13 -235 -79 -307 -133 -135
-99 -235 -267 -259 -432 -6 -42 -5 -224 1 -261 2 -14 6 -45 9 -70 8 -62 25
-144 43 -210 8 -30 18 -68 23 -85 20 -77 103 -280 119 -289 3 -2 7 24 7 57 1
34 4 76 7 92 3 17 8 50 12 75 9 63 58 207 96 282 32 63 110 190 132 214 7 6
35 37 62 68 110 124 256 231 417 306 86 39 268 98 326 105 26 4 54 8 62 10 8
2 40 7 70 10 30 4 57 9 59 11 3 3 -76 7 -139 6 -17 0 -179 -13 -200 -17 -176
-26 -383 -99 -532 -186 -26 -16 -48 -26 -48 -23 0 4 -6 2 -12 -4 -16 -12 -121
-40 -163 -42 -59 -4 -75 0 -107 29 -29 26 -33 35 -35 89 -4 139 119 278 325
368 66 29 94 44 80 44 -2 0 -7 -2 -9 -4z"/>
<path d="M338 1238 c-73 -42 -81 -128 -17 -182 30 -25 39 -28 86 -29 85 0 141
88 103 163 -33 64 -108 85 -172 48z"/>
</g>
</svg>
